<svg width="15" height="17" viewBox="0 0 15 17" fill="none" xmlns="http://www.w3.org/2000/svg">
<path d="M14 16.1339C14 13.2055 11.0867 10.837 7.5 10.837C3.91327 10.837 1 13.2055 1 16.1339M7.5 8.56694C8.50344 8.56694 9.46578 8.16832 10.1753 7.45879C10.8849 6.74925 11.2835 5.78691 11.2835 4.78347C11.2835 3.78003 10.8849 2.81769 10.1753 2.10815C9.46578 1.39861 8.50344 1 7.5 1C6.49656 1 5.53422 1.39861 4.82468 2.10815C4.11515 2.81769 3.71653 3.78003 3.71653 4.78347C3.71653 5.78691 4.11515 6.74925 4.82468 7.45879C5.53422 8.16832 6.49656 8.56694 7.5 8.56694Z" stroke="#2D2D2D" stroke-width="1.5" stroke-linecap="round" stroke-linejoin="round"/>
</svg>
