<svg width="17" height="19" viewBox="0 0 17 19" fill="none" xmlns="http://www.w3.org/2000/svg">
<path d="M4.64321 5.85232V5.02097C4.64321 3.09258 6.1945 1.19846 8.12289 1.01848C8.65871 0.965838 9.19961 1.02596 9.71078 1.19498C10.222 1.364 10.6921 1.63818 11.0909 1.99986C11.4897 2.36154 11.8084 2.80271 12.0264 3.29499C12.2444 3.78726 12.357 4.31973 12.3568 4.85813V6.04088M5.92881 18.1341H11.0712C14.5166 18.1341 15.1337 16.7542 15.3137 15.0743L15.9565 9.93195C16.1879 7.84071 15.5879 6.13515 11.9283 6.13515H5.07174C1.41208 6.13515 0.812134 7.84071 1.04354 9.93195L1.68634 15.0743C1.86632 16.7542 2.48341 18.1341 5.92881 18.1341Z" stroke="#2D2D2D" stroke-width="1.5" stroke-miterlimit="10" stroke-linecap="round" stroke-linejoin="round"/>
<path d="M11.4954 9.56342H11.504M5.49597 9.56342H5.50283" stroke="#2D2D2D" stroke-width="2" stroke-linecap="round" stroke-linejoin="round"/>
</svg>
