<svg width="15" height="17" viewBox="0 0 15 17" fill="none" xmlns="http://www.w3.org/2000/svg">
<path d="M7.52004 1.71411C4.83778 1.71411 2.65795 3.69452 2.65795 6.13138V8.25903C2.65795 8.70812 2.44726 9.39279 2.19605 9.77562L1.26415 11.1818C0.688799 12.0505 1.08587 13.015 2.13932 13.3389C5.63192 14.399 9.40004 14.399 12.8926 13.3389C13.8732 13.0444 14.3027 11.9916 13.7678 11.1818L12.8359 9.77562C12.5928 9.39279 12.3821 8.70812 12.3821 8.25903V6.13138C12.3821 3.70188 10.1942 1.71411 7.52004 1.71411Z" stroke="#2D2D2D" stroke-width="1.5" stroke-miterlimit="10" stroke-linecap="round"/>
<path d="M9.01916 1.92763C8.03922 1.67407 7.00082 1.67407 6.02087 1.92763C6.25588 1.38283 6.83933 1 7.52002 1C8.20071 1 8.78416 1.38283 9.01916 1.92763Z" stroke="#2D2D2D" stroke-width="1.5" stroke-miterlimit="10" stroke-linecap="round" stroke-linejoin="round"/>
<path d="M9.95108 13.604C9.95108 14.8188 8.85711 15.8126 7.52003 15.8126C6.85555 15.8126 6.23968 15.5623 5.8021 15.1648C5.34681 14.7505 5.09044 14.1894 5.08899 13.604" stroke="#2D2D2D" stroke-width="1.5" stroke-miterlimit="10"/>
</svg>
